<?xml version="1.0" encoding="UTF-8" standalone="no"?>
<!-- Created with Inkscape (http://www.inkscape.org/) -->

<svg
   version="1.1"
   id="svg198"
   width="1969.8557"
   height="1726.6438"
   viewBox="0 0 1969.8557 1726.6438"
   sodipodiDocname="56c.svg"
   inkscapeVersion="1.2.2 (732a01da63, 2022-12-09, custom)"
   xmlnsInkscape="http://www.inkscape.org/namespaces/inkscape"
   xmlnsSodipodi="http://sodipodi.sourceforge.net/DTD/sodipodi-0.dtd"
   xmlns="http://www.w3.org/2000/svg"
   xmlnsSvg="http://www.w3.org/2000/svg">
  <defs
     id="defs202" />
  <sodipodiNamedview
     id="namedview200"
     pagecolor="#ffffff"
     bordercolor="#000000"
     borderopacity="0.25"
     inkscapeShowpageshadow="2"
     inkscapePageopacity="0.0"
     inkscapePagecheckerboard="0"
     inkscapeDeskcolor="#d1d1d1"
     showgrid="false"
     inkscapeZoom="0.4486755"
     inkscapeCx="924.94464"
     inkscapeCy="856.96678"
     inkscapeWindow-width="1846"
     inkscapeWindow-height="1016"
     inkscapeWindow-x="0"
     inkscapeWindow-y="0"
     inkscapeWindow-maximized="1"
     inkscapeCurrent-layer="layer1" />
  <g
     inkscapeGroupmode="layer"
     id="layer1"
     inkscapeLabel="Layer 1">
    <path
       style="fill:#ccff00;stroke-width:1.33333"
       d="m 606.53532,1725.3355 c -145.78448,-8.7359 -284.67453,-66.1116 -387.33333,-160.008 -30.4506,-27.8516 -52.62051,-54.6015 -74.99216,-90.4846 -30.88897,-49.5444 -46.65976,-80.8852 -58.37152,-116 -10.41283,-31.2202 -12.64753,-44.9628 -12.57544,-77.3333 0.0513,-23.0303 0.52319,-29.4634 2.99747,-40.8637 7.71585,-35.5508 25.57566,-72.4225 49.75046,-102.7099 19.92927,-24.9685 44.64003,-67.7096 59.60318,-103.0931 22.24382,-52.60009 43.76489,-130.12163 50.1556,-180.6666 1.11264,-8.8 2.93913,-34.3 4.05888,-56.66667 1.11974,-22.36667 2.7244,-44.67047 3.56588,-49.56399 3.36536,-19.57068 -1.2847,-33.52096 -14.02994,-42.09025 -7.94589,-5.34243 -16.12617,-7.86852 -34.16241,-10.54944 -22.05961,-3.27896 -33.39076,-8.92299 -73.46652,-36.59356 l -20.79987,-14.3614 -7.03116,2.06113 c -4.95478,1.45246 -10.82169,1.90203 -19.86681,1.52239 C 62.82902,647.46407 60.08518,646.84232 52.3914,643.02959 41.8642,637.8127 29.06023,625.57867 22.19395,614.1763 c -2.6496,-4.4 -7.37447,-10.87903 -10.49971,-14.39783 -3.12524,-3.5188 -7.0542,-9.8188 -8.73104,-14 -2.75184,-6.86171 -3.03913,-9.68067 -2.9497,-28.94168 0.0621,-13.37316 0.73478,-23.32821 1.80194,-26.66667 5.13947,-16.07802 27.36196,-25.83362 67.38655,-29.58248 14.04968,-1.31594 40.68053,-2.11638 78,-2.34442 65.35851,-0.39939 64.58469,-0.28594 83.39824,-12.22778 6.56431,-4.16666 15.81567,-9.87922 20.55859,-12.69458 21.78506,-12.93143 52.58897,-17.84783 91.3765,-14.58396 l 18.66667,1.57074 3.08931,-3.73233 c 25.0925,-30.31544 42.3833,-76.06697 48.77226,-129.05159 l 1.76683,-14.65258 -9.25691,-15.34742 C 367.65192,234.65191 361.60971,185.3468 385.08886,130.36688 399.68735,96.18234 403.2222,59.9836 397.0621,7.754817 L 396.14746,0 l 8.52726,0.849974 c 31.02739,3.092727 49.34803,18.300854 59.00584,48.981256 6.49579,20.63546 7.69634,31.82167 8.8376,82.34507 1.14992,50.90641 2.41454,61.77934 8.83455,75.95748 4.77352,10.54196 12.46027,20.09446 20.78125,25.82534 l 7.2628,5.00208 14.31726,-2.1259 c 30.40918,-4.51534 55.58765,-14.19943 89.94929,-34.59614 14.20748,-8.4334 14.372,-8.58961 23.46435,-22.2779 57.85172,-87.09438 129.67569,-142.567672 212.77646,-164.337992 31.189,-8.170747 65.5214,-12.367478 83.0226,-10.148539 39.8051,5.046789 28.4788,29.032779 -27.5218,58.283681 -59.127,30.88387 -92.25582,58.81094 -112.44353,94.78799 -5.93373,10.57464 -5.46495,12.64778 5.28299,23.36344 14.00336,13.96131 27.39731,19.58184 70.62824,29.6378 45.7382,10.6392 73.6575,21.72619 95.507,37.92659 25.5593,18.95104 31.5226,31.20297 17.9479,36.87484 -5.384,2.24956 -28.7812,2.60089 -40.4588,0.60753 -4.0334,-0.68848 -14.2334,-2.49202 -22.6667,-4.00786 -35.1124,-6.31123 -45.9267,-7.03592 -114.6667,-7.68406 l -66,-0.6223 -19.33333,6.25576 c -37.19667,12.03588 -72.30323,26.77788 -112.66667,47.31117 -38.74868,19.71185 -40.28561,20.68881 -53.33333,33.90197 -24.82539,25.14012 -36.04689,48.60451 -39.43048,82.4499 -0.79791,7.98141 -1.2056,14.75681 -0.90599,15.05644 0.29963,0.29962 4.68847,-2.75723 9.75296,-6.793 25.12287,-20.01982 53.50428,-33.07172 85.60332,-39.36684 18.65194,-3.65794 49.22019,-3.92407 70.64148,-0.61502 l 14.99462,2.3163 -0.75907,9.50861 C 684.61906,530.8914 643.02675,594.37588 561.86866,624.971 l -11.33334,4.27247 -2.93466,43.13308 c -8.40438,123.52536 -19.2293,234.31725 -30.59467,313.13306 -5.97243,41.41719 -5.67353,72.46079 0.97567,101.33329 8.18424,35.5381 26.95656,75.2556 52.30626,110.6667 21.27586,29.7203 59.66675,73.0156 86.4085,97.4471 12.83801,11.7289 14.97013,13.1357 25.91394,17.099 24.45986,8.858 55.85419,16.3851 76.19714,18.2692 l 9.6055,0.8896 12.3945,-11.2801 c 118.49082,-107.837 253.332,-192.32 399.691,-250.4212 50.2144,-19.9339 63.2675,-23.8344 83.4396,-24.933 12.9122,-0.7033 13.5459,-0.6069 17.3123,2.6328 3.8479,3.3098 3.8829,3.462 2.2271,9.6531 -2.032,7.5974 -10.2199,20.4649 -21.6202,33.9768 -10.0162,11.8716 -30.0008,42.0011 -40.2394,60.6667 -20.4796,37.3356 -33.7312,74.8331 -39.0104,110.387 -2.6291,17.7057 -4.059,50.2673 -2.3176,52.775 1.0397,1.4975 4.7394,0.6817 20.4242,-4.5033 28.6579,-9.4737 76.2235,-26.8258 128.4879,-46.873 l 46.6667,-17.8999 9.1022,-8.9429 c 10.4912,-10.3074 24.139,-30.011 30.7266,-44.3604 13.4214,-29.2354 21.3068,-69.555 26.8417,-137.2492 5.4084,-66.14679 13.9007,-118.23827 26.5913,-163.11196 33.3464,-117.91075 95.0966,-204.9171 197.3446,-278.05978 14.0592,-10.05718 18.5538,-11.43944 22.6128,-6.95428 7.656,8.45976 8.8186,33.24102 4.7601,101.45942 -2.6345,44.28368 -2.8389,53.62218 -1.4889,68 3.3709,35.898 12.6064,67.81136 38.7789,134 37.6009,95.0903 33.1908,180.0931 -13.2832,256.0225 l -5.3429,8.7295 15.818,15.818 c 56.5469,56.547 92.5676,123.5462 115.6058,215.0298 4.9998,19.8534 22.7131,70.2556 33.6446,95.7335 18.4118,42.9121 36.2545,70.8869 63.968,100.2933 21.2969,22.5978 28.2845,34.4999 28.3073,48.216 0.021,13.2007 -6.1688,19.9812 -22.0103,24.1075 -10.635,2.77 -21.9082,2.5785 -41.1618,-0.6992 -78.201,-13.3129 -142.4343,-42.7592 -206.1482,-94.5035 -22.3098,-18.1186 -40.4097,-35.1176 -86.6666,-81.3949 -67.0504,-67.0801 -94.177,-90.1149 -134.7083,-114.3896 l -4.7081,-2.8197 -17.9586,14.0236 c -23.3174,18.2085 -51.7853,37.1369 -68.9584,45.8508 -7.5166,3.8141 -13.6666,7.1104 -13.6666,7.325 0,0.8676 22.7674,14.7802 34,20.7764 6.6,3.5234 18.8665,9.161 27.2589,12.5282 18.2636,7.3274 22.1167,9.5974 29.0384,17.1065 11.3315,12.2932 12.5667,26.574 3.8277,44.256 -5.5744,11.2792 -18.0872,25.3864 -30.171,34.0153 -4.602,3.2863 -15.6243,11.7224 -24.494,18.7471 -48.1075,38.1005 -97.817,70.4124 -119.1832,77.4708 -19.0906,6.3065 -42.933,7.8593 -66.636,4.3397 -18.4583,-2.7408 -30.3174,-6.5672 -61.6408,-19.8889 -14.3,-6.0816 -37.1,-15.5748 -50.6667,-21.096 -13.5667,-5.5211 -29.5922,-12.156 -35.6124,-14.7441 l -10.9457,-4.706 -24.3876,11.7596 c -152.41058,73.4912 -297.24354,105.6698 -437.72098,97.252 z"
       id="path316-3" />
    <path
       style="display:inline;fill:#ffff00;stroke-width:1.33333"
       d="m 297.11978,550.26775 c 14.68978,-4.42097 22.82754,-14.41893 21.802,-26.78565 -0.74994,-9.04334 -5.41438,-15.42596 -14.71904,-20.141 -19.48596,-9.87428 -44.99267,-1.51863 -50.39367,16.50829 -5.90332,19.70353 19.53919,37.57255 43.31071,30.41836 z"
       id="path349" />
    <path
       style="fill:#ff55dd;stroke-width:1.33333"
       d="m 295.39747,530.85262 c 3.02763,-3.02764 3.77283,-4.71647 3.08877,-7 -3.3027,-11.02508 -24.61758,-9.68551 -24.61758,1.54713 0,9.22687 14.16665,12.81503 21.52881,5.45287 z"
       id="path353" />
    <path
       style="fill:#000000;stroke-width:1.33333"
       d="m 770.5304,1778.9021 c -145.78448,-8.7359 -284.67453,-66.1116 -387.33333,-160.008 -30.4506,-27.8516 -52.62051,-54.6015 -74.99216,-90.4846 -30.88897,-49.5444 -46.65976,-80.8852 -58.37152,-116 -10.41283,-31.2202 -12.64753,-44.9628 -12.57544,-77.3333 0.0513,-23.0303 0.52319,-29.4634 2.99747,-40.8637 7.71585,-35.5508 25.57566,-72.4225 49.75046,-102.7099 19.92927,-24.9685 44.64003,-67.7096 59.60318,-103.0931 22.24382,-52.6001 43.76489,-130.12164 50.1556,-180.66661 1.11264,-8.8 2.93913,-34.3 4.05888,-56.66667 1.11974,-22.36667 2.7244,-44.67047 3.56588,-49.56399 3.36536,-19.57068 -1.2847,-33.52096 -14.02994,-42.09025 -7.94589,-5.34243 -16.12617,-7.86852 -34.16241,-10.54944 -22.05961,-3.27896 -33.39076,-8.92299 -73.46652,-36.59356 l -20.79987,-14.3614 -7.03116,2.06113 c -4.95478,1.45246 -10.82169,1.90203 -19.86681,1.52239 -11.20861,-0.47044 -13.95245,-1.09219 -21.64623,-4.90492 -10.5272,-5.21689 -23.33117,-17.45092 -30.19745,-28.85329 -2.6496,-4.4 -7.37447,-10.87903 -10.49971,-14.39783 -3.12524,-3.5188 -7.0542,-9.8188 -8.73104,-14 -2.75184,-6.86171 -3.03913,-9.68067 -2.9497,-28.94168 0.0621,-13.37316 0.73478,-23.32821 1.80194,-26.66667 5.13947,-16.07802 27.36196,-25.83362 67.38655,-29.58248 14.04968,-1.31594 40.68053,-2.11638 78,-2.34442 65.35851,-0.39939 64.58469,-0.28594 83.39824,-12.22778 6.56431,-4.16666 15.81567,-9.87922 20.55859,-12.69458 21.78506,-12.93143 52.58897,-17.84783 91.3765,-14.58396 l 18.66667,1.57074 3.08931,-3.73233 c 25.0925,-30.31544 42.3833,-76.06697 48.77226,-129.05159 l 1.76683,-14.65258 -9.25691,-15.34742 C 531.647,288.2185 525.60479,238.91339 549.08394,183.93347 563.68243,149.74893 567.21728,113.55019 561.05718,61.321407 l -0.91464,-7.754817 8.52726,0.849974 c 31.02739,3.092727 49.34803,18.300854 59.00584,48.981256 6.49579,20.63546 7.69634,31.82167 8.8376,82.34507 1.14992,50.90641 2.41454,61.77934 8.83455,75.95748 4.77352,10.54196 12.46027,20.09446 20.78125,25.82534 l 7.2628,5.00208 14.31726,-2.1259 c 30.40918,-4.51534 55.58765,-14.19943 89.94929,-34.59614 14.20748,-8.4334 14.372,-8.58961 23.46435,-22.2779 57.85172,-87.09438 129.67569,-142.567672 212.77646,-164.337992 31.189,-8.170747 65.5214,-12.367478 83.0226,-10.148539 39.8051,5.046789 28.4788,29.032779 -27.5218,58.283681 -59.127,30.88387 -92.25582,58.81094 -112.44353,94.78799 -5.93373,10.57464 -5.46495,12.64778 5.28299,23.36344 14.00336,13.96131 27.39731,19.58184 70.62824,29.6378 45.7382,10.6392 73.6575,21.72619 95.507,37.92659 25.5593,18.95104 31.5226,31.20297 17.9479,36.87484 -5.384,2.24956 -28.7812,2.60089 -40.4588,0.60753 -4.0334,-0.68848 -14.2334,-2.49202 -22.6667,-4.00786 -35.1124,-6.31123 -45.9267,-7.03592 -114.6667,-7.68406 l -66,-0.6223 -19.33333,6.25576 c -37.19667,12.03588 -72.30323,26.77788 -112.66667,47.31117 -38.74868,19.71185 -40.28561,20.68881 -53.33333,33.90197 -24.82539,25.14012 -36.04689,48.60451 -39.43048,82.4499 -0.79791,7.98141 -1.2056,14.75681 -0.90599,15.05644 0.29963,0.29962 4.68847,-2.75723 9.75296,-6.793 25.12287,-20.01982 53.50428,-33.07172 85.60332,-39.36684 18.65194,-3.65794 49.22019,-3.92407 70.64148,-0.61502 l 14.99462,2.3163 -0.75907,9.50861 c -8.47977,106.22373 -50.07208,169.70821 -131.23017,200.30333 l -11.33334,4.27247 -2.93466,43.13308 c -8.40438,123.52536 -19.2293,234.31725 -30.59467,313.13306 -5.97243,41.4172 -5.67353,72.4608 0.97567,101.3333 8.18424,35.5381 26.95656,75.2556 52.30626,110.6667 21.27586,29.7203 59.66675,73.0156 86.4085,97.4471 12.83801,11.7289 14.97013,13.1357 25.91394,17.099 24.45986,8.858 55.85419,16.3851 76.19714,18.2692 l 9.6055,0.8896 12.3945,-11.2801 c 118.49082,-107.837 253.33202,-192.32 399.69102,-250.4212 50.2144,-19.9339 63.2675,-23.8344 83.4396,-24.933 12.9122,-0.7033 13.5459,-0.6069 17.3123,2.6328 3.8479,3.3098 3.8829,3.462 2.2271,9.6531 -2.032,7.5974 -10.2199,20.4649 -21.6202,33.9768 -10.0162,11.8716 -30.0008,42.0011 -40.2394,60.6667 -20.4796,37.3356 -33.7312,74.8331 -39.0104,110.387 -2.6291,17.7057 -4.059,50.2673 -2.3176,52.775 1.0397,1.4975 4.7394,0.6817 20.4242,-4.5033 28.6579,-9.4737 76.2235,-26.8258 128.4879,-46.873 l 46.6667,-17.8999 9.1022,-8.9429 c 10.4912,-10.3074 24.139,-30.011 30.7266,-44.3604 13.4214,-29.2354 21.3068,-69.555 26.8417,-137.2492 5.4084,-66.1468 13.9007,-118.23828 26.5913,-163.11197 33.3464,-117.91075 95.0966,-204.9171 197.3446,-278.05978 14.0592,-10.05718 18.5538,-11.43944 22.6128,-6.95428 7.656,8.45976 8.8186,33.24102 4.7601,101.45942 -2.6345,44.28368 -2.8389,53.62218 -1.4889,68 3.3709,35.898 12.6064,67.81136 38.7789,134 37.6009,95.09031 33.1908,180.09311 -13.2832,256.02251 l -5.3429,8.7295 15.818,15.818 c 56.5469,56.547 92.5676,123.5462 115.6058,215.0298 4.9998,19.8534 22.7131,70.2556 33.6446,95.7335 18.4118,42.9121 36.2545,70.8869 63.968,100.2933 21.2969,22.5978 28.2845,34.4999 28.3073,48.216 0.021,13.2007 -6.1688,19.9812 -22.0103,24.1075 -10.635,2.77 -21.9082,2.5785 -41.1618,-0.6992 -78.201,-13.3129 -142.4343,-42.7592 -206.1482,-94.5035 -22.3098,-18.1186 -40.4097,-35.1176 -86.6666,-81.3949 -67.0504,-67.0801 -94.177,-90.1149 -134.7083,-114.3896 l -4.7081,-2.8197 -17.9586,14.0236 c -23.3174,18.2085 -51.7853,37.1369 -68.9584,45.8508 -7.5166,3.8141 -13.6666,7.1104 -13.6666,7.325 0,0.8676 22.7674,14.7802 34,20.7764 6.6,3.5234 18.8665,9.161 27.2589,12.5282 18.2636,7.3274 22.1167,9.5974 29.0384,17.1065 11.3315,12.2932 12.5667,26.574 3.8277,44.256 -5.5744,11.2792 -18.0872,25.3864 -30.171,34.0153 -4.602,3.2863 -15.6243,11.7224 -24.494,18.7471 -48.1075,38.1005 -97.817,70.4124 -119.1832,77.4708 -19.0906,6.3065 -42.933,7.8593 -66.636,4.3397 -18.4583,-2.7408 -30.3174,-6.5672 -61.6408,-19.8889 -14.3,-6.0816 -37.1,-15.5748 -50.6667,-21.096 -13.5667,-5.5211 -29.5922,-12.156 -35.6124,-14.7441 l -10.9457,-4.706 -24.3876,11.7596 c -152.4106,73.4912 -297.24356,105.6698 -437.721,97.252 z m 112.66667,-9.7763 c 96.55413,-9.4756 188.46413,-34.7897 290.66673,-80.0565 234.4796,-103.854 467.7837,-251.6562 596.4396,-377.8548 23.5608,-23.1108 32.8064,-37.151 32.8644,-49.9075 0.053,-11.8247 -8.5758,-16.8762 -28.8534,-16.89 -14.9176,-0.011 -23.8212,1.8969 -73.784,15.8042 -96.8926,26.9704 -128.2413,36.9315 -226,71.812 -120.026,42.8254 -165.0464,56.4287 -226,68.2879 -52.1445,10.1452 -80.782,12.7542 -140,12.7547 -60.6625,5e-4 -92.4341,-2.7483 -154,-13.3232 -48.1798,-8.2757 -149.51376,-30.0656 -223.33333,-48.0235 -63.38256,-15.4189 -90.28928,-19.3196 -133.26655,-19.3196 -34.91346,0 -56.79344,2.9725 -80.73345,10.9679 -38.66813,12.9143 -65.02576,36.0141 -74.96432,65.6988 -4.92165,14.7 -5.14861,36.4275 -0.53585,51.2975 12.0667,38.8986 43.52293,73.0909 91.91445,99.909 22.56111,12.5031 19.56069,12.298 43.36643,2.9639 51.39865,-20.1535 111.38256,-33.9881 185.55262,-42.7959 45.19307,-5.3668 172.58028,-8.5826 217.34799,-5.487 25.89931,1.7909 46.90401,4.6108 55.43981,7.4428 5.4675,1.814 5.5524,1.9098 1.2122,1.3704 -28.7933,-3.5788 -174.89682,-4.091 -219.33333,-0.7687 -102.04617,7.6292 -184.64267,24.6936 -247.4838,51.1301 l -14.15047,5.953 -17.18286,-8.882 c -9.45058,-4.8851 -20.78287,-11.2014 -25.18287,-14.0362 -21.67955,-13.9677 -43.14939,-33.3346 -56.53301,-50.9958 -9.03199,-11.9187 -19.47456,-33.0752 -22.91936,-46.4344 -3.4758,-13.4794 -3.81,-33.7082 -0.7651,-46.3118 8.2915,-34.3208 38.02378,-62.6908 80.5521,-76.8616 28.2165,-9.402 56.783,-12.889 96.28684,-11.7535 40.15362,1.1542 62.62394,4.7244 123.37853,19.6033 36.21571,8.8693 75.15687,17.5609 87.25705,19.4758 l 5.92371,0.9375 -17.51289,-16.9676 c -75.91956,-73.5552 -121.66818,-144.6269 -134.87831,-209.5368 -6.4242,-31.5662 -6.5954,-53.2678 -0.75145,-95.252 8.96809,-64.42874 16.2933,-132.4955 23.24546,-215.99998 4.6901,-56.33419 10.65364,-140.45169 10.00564,-141.13265 -0.24388,-0.2563 -5.13372,-0.65654 -10.86632,-0.88943 -5.73258,-0.23288 -13.42289,-1.15516 -17.08956,-2.04951 -9.13856,-2.229 -24.93432,-9.57932 -32.92936,-15.32317 -7.60444,-5.46325 -5.99942,-5.90793 -22.57416,6.25431 l -8.83685,6.4843 -2.94989,12.76575 c -4.62256,20.00425 -12.61906,34.581 -26.90483,49.04468 -13.32229,13.48819 -12.71079,12.03 -21.72752,51.81044 -11.856,52.30675 -19.54507,114.07529 -22.03769,177.03528 -1.61946,40.90468 -3.62331,54.17418 -12.24958,81.11668 -8.20778,25.6355 -20.58318,47.7378 -38.73405,69.1785 -10.35769,12.2351 -20.17868,21.155 -41.53859,37.7274 -63.31442,49.1235 -107.34588,113.8219 -121.125,177.9774 -3.91074,18.2084 -4.23785,55.8299 -0.6318,72.6667 13.09644,61.1477 54.82036,109.5993 122.90599,142.7236 21.55492,10.4866 45.34648,19.3166 69.623,25.84 l 17.04367,4.5798 -8.45723,0.095 c -36.35539,0.4081 -94.34547,-26.4039 -141.75072,-65.5389 -25.86847,-21.3555 -38.9868,-36.8743 -50.46507,-59.6995 -27.7416,-55.1656 -25.90885,-117.9488 5.3129,-182 21.74848,-44.6168 59.73374,-89.5425 105.90286,-125.2525 35.84295,-27.7232 56.69812,-53.9543 70.08227,-88.1476 10.79731,-27.5846 15.36736,-52.5683 16.69461,-91.26655 1.86547,-54.39092 6.97343,-102.1633 16.10972,-150.66666 2.91311,-15.4653 11.17842,-51.99651 13.32808,-58.9078 0.5687,-1.82836 -1.34005,-1.41454 -10.3635,2.24685 -17.00935,6.90177 -31.55199,9.13855 -53.06059,8.16116 -9.9,-0.44987 -19.84269,-1.1738 -22.09487,-1.60875 l -4.09486,-0.7908 6.77713,13.783 c 11.47301,23.33322 19.52979,52.32662 23.6524,85.11634 2.66196,21.17228 2.25508,84.75498 -0.65692,102.65553 -2.58173,15.87027 -7.69864,37.67318 -8.62427,36.74748 -0.33882,-0.3388 0.20688,-9.79308 1.21268,-21.00951 2.82888,-31.54722 2.48572,-106.85236 -0.57596,-126.3935 -3.25737,-20.7902 -8.27449,-40.95276 -13.70701,-55.08519 -4.36723,-11.36109 -14.84436,-32.61179 -18.2968,-37.11128 -0.92695,-1.20807 -6.24084,-3.96537 -11.80867,-6.12737 -29.37276,-11.40552 -52.26581,-30.62702 -65.51697,-55.00953 -2.59055,-4.76667 -5.43136,-11.13743 -6.31293,-14.15725 l -1.60287,-5.49058 -19.50837,-0.75008 c -27.618,-1.06188 -42.3726,-5.76946 -59.01008,-18.82765 -6.25323,-4.90793 -21.11139,-22.39436 -21.15215,-24.89375 -0.007,-0.43229 1.45437,-1.45448 3.24759,-2.27153 3.05713,-1.39291 3.63709,-0.95767 9.30192,6.98088 7.16933,10.04692 16.72722,17.98016 28.33906,23.52199 12.57814,6.00298 24.9505,8.20425 45.89351,8.16526 l 18.12821,-0.0337 2.34559,7.54489 c 5.94427,19.12062 18.68176,36.77787 35.91933,49.79288 38.44879,29.03028 92.5889,36.61739 132.06818,18.50783 29.27094,-13.42692 46.36273,-40.30459 58.56044,-92.08919 l 3.29765,-14 0.10947,10.296 0.10946,10.296 14.51976,-9.76781 c 17.82896,-11.994 30.40304,-17.34979 62.81826,-26.75674 13.83165,-4.01397 29.96413,-9.15524 35.84996,-11.42505 27.35074,-10.54757 49.17982,-32.02851 64.78729,-63.75403 5.73281,-11.65317 14.8362,-37.18802 13.67264,-38.35157 -2.01037,-2.01039 -18.15427,-3.18223 -26.96239,-1.95713 -33.62601,4.67694 -67.26286,29.42886 -121.17825,89.16988 -9.43768,10.45742 -19.03768,20.01878 -21.33333,21.24745 -5.2569,2.81357 -18.41823,2.77381 -24.8406,-0.0751 -10.43215,-4.6275 -18.89906,-13.38864 -21.283,-22.02257 -2.4576,-8.90069 -0.76455,-11.73399 19.05041,-31.88064 l 18.66876,-18.98127 -12.55143,-5.90278 c -17.23465,-8.10528 -32.88688,-13.4128 -57.21797,-19.40205 -30.03295,-7.3928 -48.70053,-9.83759 -75.33333,-9.86595 -34.9094,-0.0372 -49.68056,4.14415 -76.56331,21.67311 -14.89583,9.71284 -22.59479,13.5641 -32.41153,16.21325 -3.78344,1.021 -24.91488,1.64265 -63.02516,1.85411 -79.38491,0.44045 -102.47058,2.79222 -123.87698,12.61953 -11.73842,5.38891 -14.17938,8.58437 -15.54188,20.34599 -2.66149,22.97496 -0.97994,41.13908 4.57122,49.37864 2.31098,3.43016 4.53393,4.7773 10.2333,6.20153 25.5211,6.37751 45.27792,14.13019 57.58151,22.59528 3.21111,2.20929 13.69316,10.29903 23.29345,17.97717 22.22723,17.77695 50.94984,37.00916 66.59443,44.59059 9.25173,4.48343 14.71301,6.21636 22.66667,7.19243 24.89397,3.05497 38.87864,8.6881 48.7069,19.61948 9.49848,10.56461 12.35659,23.56249 9.15342,41.62737 -0.70654,3.98468 -2.21388,24.04488 -3.34964,44.57821 -1.13578,20.53334 -2.67866,43.63334 -3.42863,51.33334 -3.55488,36.498 -13.90487,82.00584 -31.12052,136.83381 -19.90393,63.3896 -48.52612,119.6801 -83.93647,165.0757 -24.97826,32.0218 -41.23198,68.3753 -47.09708,105.3385 -2.97036,18.7199 -1.91741,54.8745 2.15762,74.0853 9.24544,43.5856 29.37994,86.9907 70.5089,152 15.60132,24.6599 27.66959,39.4988 53.37448,65.6288 68.44987,69.5819 156.87691,120.9727 258.59184,150.2851 47.17091,13.5938 90.50038,20.6682 150.91746,24.6404 15.86264,1.0429 81.78884,-0.5866 101.33333,-2.5047 z m -187.33333,-36.1423 c -36.4171,-4.9666 -69.25346,-18.237 -84,-33.9477 l -4,-4.2615 6.80997,4.1484 c 30.52151,18.5926 71.57761,29.4738 111.19003,29.469 20.49768,0 42.66666,-2.7231 42.66666,-5.2359 0,-1.8853 -21.11501,-10.7389 -33.67776,-14.1212 -6.77722,-1.8247 -19.22224,-4.5251 -27.65557,-6.0008 -16.47896,-2.8839 -62.53204,-7.9316 -72.96957,-7.9981 -12.22199,-0.077 -2.40642,-2.6859 13.27064,-3.5262 35.98884,-1.9286 99.799,10.6436 125.97278,24.82 l 7.29199,3.9495 6.88375,-2.7045 c 9.60745,-3.7744 21.0495,-10.4847 20.20586,-11.8498 -1.11677,-1.8069 -21.08266,-9.1412 -34.44801,-12.654 -24.26179,-6.3766 -53.74515,-10.0781 -106.20744,-13.3336 -40.8682,-2.536 -47.28309,-3.7009 -30,-5.448 20.1466,-2.0364 72.51963,-1.2797 90.66667,1.31 33.15189,4.7311 58.47636,11.4075 78.68602,20.7444 10.87234,5.0231 11.02748,5.0515 14.81735,2.7191 2.10648,-1.2964 9.49467,-5.8309 16.41821,-10.0768 l 12.58826,-7.7199 -11.25492,-3.8021 c -14.0105,-4.7332 -37.7251,-9.5699 -61.25492,-12.4932 -13.6511,-1.696 -33.78494,-2.4069 -83.33334,-2.9427 -37.34946,-0.4038 -63.33448,-1.1625 -60.66666,-1.7713 8.30577,-1.8952 38.8469,-5.0079 58,-5.9111 44.38864,-2.0933 112.80904,5.8326 152.41118,17.6554 6.37386,1.9028 12.5005,3.5017 13.61476,3.5532 2.68927,0.124 32.14206,-19.1274 31.31359,-20.4679 -1.00452,-1.6253 -19.76432,-6.3488 -36.67287,-9.2339 -37.99069,-6.4821 -100.71997,-6.9722 -188.48898,-1.4725 -24.8356,1.5563 -45.4232,2.562 -45.7502,2.2349 -1.04008,-1.04 22.74849,-6.026 41.82234,-8.7657 31.31142,-4.4975 58.95071,-5.8588 102.27332,-5.0371 51.42626,0.9752 84.92766,4.5963 120.63571,13.039 l 16.49219,3.8993 8.84114,-6.2445 c 19.57074,-13.8231 29.69014,-22.2216 27.92646,-23.1775 -1.97864,-1.0724 -22.72379,-4.5595 -39.75198,-6.682 -6.23333,-0.7769 -31.43333,-1.7377 -56,-2.1351 -62.02133,-1.003 -106.96318,2.5411 -197.95077,15.6107 -19.77292,2.8401 -36.15797,4.9568 -36.41124,4.7035 -0.8158,-0.8158 38.44456,-9.9143 57.69535,-13.3707 22.97782,-4.1257 60.36608,-9.1459 91.33333,-12.2636 17.62627,-1.7745 35.56277,-2.3595 73.33333,-2.3913 52.67608,-0.044 70.2684,1.2305 102.41511,7.4226 7.56164,1.4567 14.76164,2.3195 16,1.9175 1.23836,-0.4019 7.33032,-5.4288 13.53768,-11.1708 l 11.28613,-10.44 -17.9528,-1.6529 c -89.59638,-8.2492 -193.04848,-1.5158 -324.57625,21.126 -16.84291,2.8993 -30.80687,5.0882 -31.031,4.8641 -0.88553,-0.8856 33.50661,-10.282 53.65447,-14.6591 91.91862,-19.9696 221.88442,-27.4244 311.7169,-17.8801 13.84564,1.4711 14.51882,1.4223 18,-1.3057 1.98903,-1.5587 7.37003,-5.3754 11.95773,-8.4815 4.5877,-3.1063 7.88773,-6.0621 7.33343,-6.5687 -1.45553,-1.3297 -36.17336,-6.166 -62.44814,-8.6989 -31.0191,-2.9904 -97.86475,-3.0096 -131.89326,-0.037 -46.67718,4.0764 -97.92097,11.9612 -144.09522,22.1716 -15.27576,3.3778 -78.15326,19.0541 -87.90478,21.9158 -1.46666,0.4304 1.53334,-1.266 6.66667,-3.7698 28.23276,-13.7708 83.67445,-27.8098 152.66667,-38.6582 61.27825,-9.6353 95.46672,-12.0993 153.975,-11.097 44.64808,0.7649 64.10301,2.3661 102.80873,8.4617 l 22.78373,3.5881 13.8554,-8.5518 c 7.6204,-4.7036 17.0178,-11.5859 20.8829,-15.294 4.7485,-4.5556 7.0276,-6.0218 7.0276,-4.521 0,5.606 -18.1487,22.5115 -35.3333,32.913 -18.839,11.4026 -32.34993,21.3138 -43.80154,32.1317 -6.72568,6.3535 -16.42176,15.2991 -21.54684,19.8793 l -9.31835,8.3275 6,-0.7721 c 160.07713,-20.6018 337.91343,-85.6608 547.33333,-200.2346 69.0552,-37.7801 176.014,-100.6232 256.6667,-150.8031 l 3.3333,-2.0739 -2.6666,3.1069 c -8.0339,9.3602 -52.1334,39.3265 -100.6667,68.4046 -92.4004,55.3603 -254.2463,142.3775 -322,173.1249 -136.602,61.9912 -259.0228,99.2972 -380.6667,116.0028 l -20.66666,2.8381 -11.33334,8.306 c -24.75953,18.146 -45.99812,32.0043 -87.7993,57.2895 -38.17278,23.0904 -48.81144,27.8926 -71.20118,32.1398 -13.2297,2.5096 -46.99134,2.4703 -65.66618,-0.077 z M 433.09616,609.66694 c -14.56784,-5.60465 -23.23242,-17.19035 -23.23242,-31.0648 0,-9.57492 3.17064,-16.06228 11.38356,-23.29159 20.04544,-17.64469 56.21986,-11.66318 66.79394,11.04451 4.20038,9.02027 4.09146,16.98667 -0.35421,25.90799 -4.11875,8.26522 -12.629,15.15721 -22.39863,18.13938 -9.19042,2.80538 -23.85978,2.47023 -32.19224,-0.73549 z m 28.0187,-5.8326 c 14.68978,-4.42097 22.82754,-14.41893 21.802,-26.78565 -0.74994,-9.04334 -5.41438,-15.42596 -14.71904,-20.141 -19.48596,-9.87428 -44.99267,-1.51863 -50.39367,16.50829 -5.90332,19.70353 19.53919,37.57255 43.31071,30.41836 z m -20.22358,-9.97019 c -14.43609,-6.74016 -14.0957,-24.03293 0.5963,-30.2931 5.654,-2.40914 11.11986,-2.30924 17.6997,0.32349 9.35535,3.74327 13.2621,13.38135 9.11418,22.48503 -3.73528,8.19806 -17.70943,12.01382 -27.41018,7.48458 z m 18.50127,-9.44494 c 3.02763,-3.02764 3.77283,-4.71647 3.08877,-7 -3.3027,-11.02508 -24.61758,-9.68551 -24.61758,1.54713 0,9.22687 14.16665,12.81503 21.52881,5.45287 z M 1439.6296,1722.4131 c 11.8392,-2.0646 26.2342,-6.7574 26.2342,-8.5525 0,-0.5632 -4.35,-1.7823 -9.6667,-2.7091 -33.4945,-5.8388 -77.2963,-19.844 -139.6637,-44.6561 l -41.7029,-16.5909 -14.8167,7.4049 c -16.421,8.2068 -16.2556,8.1057 -15.1204,9.2409 0.4441,0.444 15.9941,6.9528 34.5556,14.4639 18.5614,7.5109 44.249,18.1779 57.0834,23.704 25.4372,10.9528 36.3538,14.586 52.6647,17.528 14.1733,2.5565 36.3093,2.6297 50.4325,0.1669 z m 671.3806,-2.7382 c 3.8301,-1.1375 8.8889,-3.789 11.242,-5.8924 3.7388,-3.3422 4.2668,-4.6398 4.1874,-10.2904 -0.097,-6.957 -5.6,-18.989 -12.3392,-26.9828 -3.4841,-4.1328 -4.051,-4.2964 -23.57,-6.7999 -97.4646,-12.5008 -167.4468,-40.6533 -233.5812,-93.9652 -19.8086,-15.968 -34.1812,-29.0765 -75.305,-68.6824 -36.3156,-34.9749 -51.4388,-48.4828 -73.1138,-65.3044 -15.5709,-12.0844 -39.5089,-28.8167 -42.4148,-29.6473 -1.7717,-0.5066 -21.5901,14.0141 -21.1468,15.4938 0.1968,0.657 6.1756,4.857 13.286,9.3334 35.2284,22.178 57.3854,41.4005 126.9467,110.1342 30.8025,30.4359 62.0025,60.5019 69.3333,66.8134 71.0946,61.2078 135.478,91.6718 225.9956,106.9328 8.125,1.3698 24.0263,0.7736 30.4798,-1.1428 z m -621.2244,-18.8782 c 5.9096,-3.4537 10.7446,-6.6921 10.7446,-7.1964 0,-0.5044 -4.05,-1.6144 -9,-2.4666 -35.7777,-6.1604 -81.112,-21.9374 -142.8408,-49.7104 l -29.8408,-13.426 -17.142,8.49 c -9.4281,4.6694 -16.6997,8.8868 -16.1592,9.3717 0.5406,0.4849 17.8265,7.5257 38.4132,15.6461 60.0118,23.6715 101.4936,36.7286 135.903,42.7775 8.0666,1.418 15.6816,2.6267 16.922,2.6859 1.2405,0.059 7.0905,-2.718 13,-6.1718 z m 31.063,-19.94 c 4.9612,-3.4208 8.8692,-6.3564 8.6844,-6.5237 -0.1849,-0.1673 -8.0016,-2.1611 -17.3704,-4.4307 -32.9162,-7.9737 -72.244,-22.5224 -127.8438,-47.2934 -15.8831,-7.0763 -29.3831,-12.8727 -30,-12.8808 -1.6683,-0.021 -25.7532,12.5544 -25.7722,13.4574 -0.013,0.427 10.0336,5.3194 22.317,10.8722 69.7732,31.5416 108.4414,44.3037 160.3156,52.9108 0.3569,0.059 4.7081,-2.6911 9.6694,-6.1118 z m 30.9176,-22.4801 c 1.4131,-1.0667 2.3131,-2.1272 2,-2.3565 -0.3132,-0.2294 -5.9693,-1.4888 -12.5693,-2.7988 -27.4491,-5.4482 -59.9768,-18.106 -117.7768,-45.8318 l -35.1103,-16.8417 -11.5293,6.1827 c -6.3411,3.4004 -11.7139,6.7365 -11.9395,7.4134 -0.4352,1.3056 38.5028,19.0103 69.6892,31.687 35.5946,14.4684 66.0779,24.3126 92.009,29.7133 l 11.991,2.4973 5.3334,-3.8626 c 2.9333,-2.1246 6.4894,-4.7355 7.9026,-5.8023 z m 542.4938,-3.7556 c -4.3502,-4.6503 -10.5474,-11.8328 -13.7716,-15.9611 -5.227,-6.6925 -6.5178,-7.5929 -11.9102,-8.3088 -79.7848,-10.592 -144.8518,-40.1825 -220.7146,-100.3742 -8.8,-6.9823 -19.6,-15.8 -24,-19.5951 -4.4,-3.7951 -21.5,-18.5413 -38,-32.7695 -47.2191,-40.7178 -77.1554,-64.4388 -95.649,-75.7905 l -6.9822,-4.2859 -3.8028,2.7079 c -8.039,5.7243 -8.0148,5.7851 6.0744,15.2896 31.2941,21.1111 55.8512,42.1376 109.6929,93.9229 19.4333,18.6911 41.9333,39.6722 50,46.6246 69.0121,59.4797 134.4377,88.868 232,104.211 8.8,1.3839 18.0188,2.5766 20.4863,2.6503 l 4.4861,0.134 z m -523.7875,-10.8037 6.6089,-5.8232 -5.9422,-1.4863 c -36.409,-9.1063 -61.219,-18.9291 -111.8951,-44.3015 l -39.286,-19.6697 -11.8409,6.776 -11.8408,6.776 17.7936,8.6125 c 54.0222,26.1483 81.8773,37.9288 109.1269,46.1524 12.5653,3.7922 33.2897,8.3834 39.3333,8.714 0.7334,0.04 4.3074,-2.5476 7.9423,-5.7502 z m 20.2337,-15.5166 c 2.4699,-1.5264 4.4791,-3.1764 4.4648,-3.6666 -0.015,-0.4902 -8.2608,-3.8912 -18.3258,-7.5579 -20.4823,-7.4616 -69.7415,-31.3473 -102.742,-49.8195 -11.9683,-6.6993 -22.301,-12.1805 -22.9616,-12.1805 -1.0006,0 -20.9915,11.3207 -22.3882,12.6781 -0.6078,0.5908 60.7522,31.368 76.0627,38.1518 18.9184,8.3825 38.8455,15.5581 55.0475,19.8222 23.22,6.1114 24.891,6.2507 30.8426,2.5724 z m 471.2824,-15.8593 c -2.9342,-4.54 -7.8874,-13.2391 -11.007,-19.3315 l -5.6722,-11.077 -9.3896,-0.9056 c -45.2456,-4.3639 -93.1738,-23.5379 -145.6382,-58.2638 -24.1132,-15.9605 -41.386,-28.5892 -81.7514,-59.7714 -53.9201,-41.6532 -84.4457,-63.5231 -103.3974,-74.0783 l -6.731,-3.7488 -4.3574,3.2217 c -5.1195,3.785 -7.1418,1.5814 17.3498,18.9066 19.7807,13.9928 39.614,30.1897 87.2682,71.2678 19.7273,17.005 43.0678,36.6695 51.8678,43.6988 70.1524,56.0368 132.0396,86.0627 201.8031,97.9094 7.8083,1.326 14.3755,1.9644 14.5937,1.4186 0.2182,-0.5457 -2.0041,-4.7066 -4.9384,-9.2465 z m -453.408,1.4111 c 2.9876,-2.5178 4.1459,-4.3266 3.283,-5.1267 -0.7334,-0.6799 -7.3334,-3.5732 -14.6667,-6.4295 -17.8541,-6.954 -64.722,-30.1701 -96.3869,-47.7454 l -25.7203,-14.2758 -7.2516,4.149 c -3.9883,2.2818 -7.5175,4.5793 -7.8425,5.1053 -1.3126,2.1236 73.4022,41.3595 100.8904,52.9817 15.2997,6.469 39.2046,15.1942 41.6946,15.2183 0.7611,0.013 3.4611,-1.7372 6,-3.8769 z m 13.9015,-17.0858 c 1.8599,-2.7369 3.3815,-5.6338 3.3815,-6.4376 0,-0.8037 -5.25,-3.4386 -11.6667,-5.8556 -22.578,-8.504 -50.0964,-23.4697 -101.5329,-55.2182 -5.4264,-3.3494 -10.5264,-5.703 -11.3334,-5.2302 -10.7373,6.2911 -18.1,11.6066 -17.2238,12.4346 2.3116,2.1853 54.1813,29.9825 75.7568,40.5984 21.834,10.7432 54.2689,24.6285 57.6185,24.6665 0.8903,0.013 3.1403,-2.2211 5,-4.9579 z m 7.3815,-21.0666 c 0,-11.0663 -5.7756,-20.295 -16.6667,-26.6314 -2.9333,-1.7065 -11.0333,-5.2842 -18,-7.9505 -15.2213,-5.8252 -34.7072,-15.9839 -52.2419,-27.2353 l -12.9084,-8.283 -9.4249,6.2671 c -5.1836,3.4469 -9.408,6.6291 -9.3875,7.0715 0.045,0.974 59.2515,36.4474 73.296,43.9153 12.13,6.4499 40.218,18.3507 44.3334,18.7839 0.55,0.057 1,-2.6142 1,-5.9376 z m 410.2817,-3.6239 c -0.3685,-0.9167 -3.7891,-9.2559 -7.6009,-18.5316 l -6.931,-16.8648 -10.3662,-1.5159 c -23.5951,-3.45 -55.661,-13.1854 -81.7231,-24.8118 -32.3971,-14.4524 -60.772,-32.0163 -114.4025,-70.8146 -47.6154,-34.4466 -72.4455,-50.6598 -94.7871,-61.893 l -10.6009,-5.3302 -3.8556,3.0476 c -2.1206,1.6762 -3.712,3.5858 -3.5364,4.2434 0.1756,0.6577 5.9898,4.7626 12.9205,9.1221 21.4935,13.5193 43.7304,29.6501 91.016,66.0237 66.8181,51.3987 95.6112,71.0324 129.5855,88.363 28.7617,14.6717 53.4098,23.3108 80,28.0394 16.5344,2.9404 21.1781,3.1518 20.2817,0.9227 z m -18.2817,-44.412 c 0,-1.5108 -13.8548,-39.9713 -14.9118,-41.3948 -0.6018,-0.8105 -5.1429,-1.8157 -10.0912,-2.234 -23.8106,-2.0123 -58.7172,-12.0619 -87.7181,-25.2541 -20.3496,-9.257 -40.4003,-20.5231 -85.2789,-47.917 -42.449,-25.9106 -58.934,-35.2581 -77.1976,-43.7729 -17.9686,-8.3771 -16.9167,-8.1841 -21.9056,-4.0192 l -4.3978,3.6715 11.7506,6.3116 c 20.3837,10.9488 43.467,25.9176 75.4414,48.9213 74.2047,53.3861 104.1528,71.7628 140.6406,86.2995 26.2394,10.4537 73.6684,22.9361 73.6684,19.3881 z m -22.762,-71.4584 c -2.8548,-11.1063 -5.5227,-20.5255 -5.9287,-20.9313 -0.4059,-0.4059 -10.5043,-0.8891 -22.4409,-1.0738 -41.751,-0.6457 -74.2974,-7.9014 -109.6256,-24.4393 -16.2523,-7.608 -24.6711,-12.4581 -62.5762,-36.0508 -32.0781,-19.9659 -48.4917,-29.3011 -51.5188,-29.3011 -1.0769,0 -3.9306,2.0352 -6.3416,4.5226 l -4.3834,4.5226 21.122,10.5822 c 11.617,5.8202 30.1218,16.0022 41.1218,22.6268 11,6.6245 34.1,20.5742 51.3334,30.9993 47.7686,28.8971 79.3133,43.506 112.5936,52.1443 14.3133,3.7152 39.1726,7.9992 40.954,7.0576 0.4846,-0.256 -1.4548,-9.5527 -4.3096,-20.6591 z m -9.238,-30.8676 c 0,-2.0652 -8.572,-27.8049 -10.2704,-30.8399 -0.9782,-1.7478 -4.8187,-2.1994 -22.4548,-2.6406 -43.9571,-1.0998 -75.288,-10.315 -151.2748,-44.4939 -18.7,-8.4113 -35.9296,-16.1165 -38.2882,-17.1227 -4.0824,-1.7418 -4.514,-1.6311 -9,2.3076 -2.5914,2.2754 -4.7118,4.5675 -4.7118,5.0936 0,0.5261 5.1864,3.7983 11.5253,7.2715 6.3388,3.4733 25.0888,14.8218 41.6667,25.2191 68.6176,43.0354 106.9926,56.1209 166.4746,56.7661 12.626,0.1369 16.3334,-0.2173 16.3334,-1.5608 z m -900.6099,-31.3911 c 80.1663,-59.312 160.8024,-98.691 236.6099,-115.5498 12.1,-2.6909 22.0461,-4.989 22.1025,-5.1068 0.056,-0.1179 1.4496,-4.4143 3.0957,-9.5476 1.6463,-5.1334 4.5082,-13.1254 6.3596,-17.7601 1.8516,-4.6347 3.1586,-8.6273 2.9043,-8.8724 -0.8076,-0.779 -33.4949,9.6576 -54.6891,17.4614 -82.9837,30.555 -163.166,76.5619 -237.7,136.3872 l -15.9269,12.7839 4.5936,0.8245 c 14.0691,2.5251 15.5214,2.0527 32.6504,-10.6203 z m 38.5088,-0.065 c 76.1142,-44.9127 144.7436,-73.5344 204.8076,-85.4145 l 7.3732,-1.4583 2.2935,-11.1421 c 1.2613,-6.1282 2.2934,-11.7537 2.2934,-12.5012 0,-2.7413 -40.1527,7.2839 -68.7812,17.1731 -54.9746,18.9899 -115.196,51.2653 -171.2898,91.8019 -8.3943,6.0663 -15.8323,11.5634 -16.529,12.2158 -0.747,0.6997 3.0401,1.1864 9.2323,1.1864 h 10.499 z m 61.5409,-4.4612 c 38.0881,-18.8529 57.5056,-27.0919 87.2268,-37.0108 20.65,-6.8915 50.5576,-14.6669 56.4152,-14.6669 2.9416,0 3.191,-0.7229 4.2768,-12.3996 l 0.9671,-10.3997 -3.1629,0.7064 c -39.636,8.8515 -68.7793,18.3073 -105.8295,34.3376 -29.3267,12.6885 -74.5667,36.111 -99.0408,51.2771 l -7.6259,4.7256 18.1066,-0.7214 18.1065,-0.7215 z m -137.4398,4.8432 c 58.6803,-49.3255 134.8408,-97.2091 201.0158,-126.3828 34.1895,-15.0726 81.3371,-32.2751 104.7808,-38.2309 l 7.1299,-1.8113 6.1945,-12.048 c 3.407,-6.6263 6.3872,-12.7704 6.6227,-13.6535 0.5151,-1.931 -11.07,1.1211 -36.5301,9.6238 -88.9197,29.696 -187.4212,85.3917 -305.1683,172.5511 -12.4417,9.2097 -21.7416,16.9144 -20.6665,17.1215 1.0752,0.2069 6.7547,0.8814 12.6213,1.4988 5.8666,0.6173 10.9665,1.1889 11.3332,1.2702 0.3667,0.081 6.0667,-4.391 12.6667,-9.9389 z m 168.9131,3.526 c 5.6365,-0.8711 15.4396,-4.2635 26.6667,-9.228 23.006,-10.1732 49.806,-20.1661 70.9154,-26.442 l 16.8381,-5.0064 v -5.0187 c 0,-2.7604 -0.15,-5.4528 -0.3333,-5.9832 -1.2643,-3.6579 -53.3583,11.0516 -87.0262,24.5731 -17.3762,6.9785 -65.9738,29.7984 -65.9738,30.979 0,0.9166 22.2432,-1.298 38.9131,-3.8741 z m -201.2603,-10.9548 c 129.4801,-97.7748 243.9105,-161.0508 343.2378,-189.7984 11.6102,-3.3603 21.446,-6.526 21.8576,-7.035 2.6867,-3.3229 21.4703,-33.818 21.0742,-34.2141 -0.2694,-0.2693 -14.5896,4.1826 -31.8227,9.8931 -127.3021,42.1838 -248.2476,110.4638 -375.08843,211.7569 -12.3321,9.8482 -22.19313,18.1347 -21.91343,18.4144 0.8586,0.8586 14.66913,2.9035 20.72313,3.0684 5.24403,0.143 7.07293,-0.8649 21.93183,-12.0853 z m -30.47673,-11.5248 c 118.05003,-95.3376 234.96383,-163.7225 354.85233,-207.5591 20.1766,-7.3776 56.2832,-19.0449 66.3132,-21.4282 4.4844,-1.0656 13.8977,-11.2517 22.4676,-24.3118 10.7752,-16.4211 10.2644,-18.2233 -4.8092,-16.9702 -14.0612,1.169 -32.3514,6.2523 -58.1188,16.1526 -154.8247,59.4867 -278.0647,133.8717 -403.75197,243.6963 -13.00108,11.3601 -24.37299,21.5401 -25.27092,22.622 -1.39776,1.6843 -0.1386,2.2545 8.75452,3.9648 5.71291,1.0985 11.81637,2.058 13.56324,2.1319 2.20497,0.093 10.15496,-5.5018 26,-18.2983 z m 321.49053,5.0671 c 27.156,-6.7056 26,-6.2299 26,-10.6971 0,-2.8312 -0.6428,-3.9373 -2.2878,-3.9373 -5.7991,0 -65.7506,20.8648 -68.8756,23.9706 -1.2774,1.2695 20.1551,-3.161 45.1634,-9.3362 z m 663.9008,1.0322 c -0.5201,-1.65 -3.7856,-9.0736 -7.2568,-16.4969 l -6.311,-13.4969 -21.2992,0.6797 c -38.0651,1.2145 -63.4906,-4.5594 -132.1574,-30.0123 l -27.1236,-10.0539 -5.4609,5.461 -5.4609,5.461 3.2512,1.2613 c 1.7881,0.6937 14.0512,6.1704 27.2512,12.1706 82.0952,37.3166 116.032,47.577 158.4232,47.8972 l 17.0898,0.1294 -0.9456,-3 z m -19.8394,-38.021 c 1.3372,-0.7484 -0.4222,-4.7019 -7.1436,-16.0529 l -8.9178,-15.06 -16.6666,0.86 c -28.0366,1.4468 -60.5828,-2.6221 -102.9408,-12.8694 l -22.5478,-5.4548 -4.5336,5.1324 c -2.4934,2.8228 -4.5585,5.4628 -4.589,5.8665 -0.031,0.4038 3.3945,2.0029 7.6112,3.5536 41.1168,15.1211 51.1848,18.6781 65.6489,23.1934 18.5029,5.7762 36.9033,9.9502 52.0177,11.8 10.7546,1.3161 39.1468,0.6622 42.0614,-0.9688 z m -24.46,-38.7394 c 1.9005,-0.7593 0.7432,-2.9278 -7.1396,-13.3783 -8.5091,-11.2806 -9.7447,-12.3999 -12.9348,-11.7168 -1.9398,0.4154 -7.727,1.6674 -12.8603,2.7822 -19.6179,4.2606 -61.0583,1.707 -87.4155,-5.3865 -2.7988,-0.7533 -9.0169,9.9565 -6.6354,11.4284 4.4102,2.7256 59.6422,13.9245 78.5938,15.9357 12.564,1.3333 45.3262,1.5604 48.3918,0.3353 z m -326.7867,-24.2727 c 4.3244,-1.1705 5.0245,-2.0156 6.8772,-8.3017 16.3528,-55.4862 21.4783,-76.2761 34.926,-141.6652 26.1337,-127.0738 35.9948,-164.55055 57.0104,-216.66661 23.1563,-57.42414 52.6549,-102.49384 94.2821,-144.04922 13.5826,-13.55914 30.3416,-28.68336 39.8912,-36 l 16.4684,-12.61775 -0.6084,-23.33333 c -0.5769,-22.12527 -2.161,-32 -5.1336,-32 -0.666,0 -7.1665,4.26164 -14.4454,9.47029 -98.99,70.8356 -160.8256,158.94104 -192.7851,274.68677 -12.1453,43.98594 -20.0447,92.69135 -25.2755,155.84295 -8.2485,99.5868 -21.2805,145.1929 -51.5,180.228 -3.587,4.1588 -6.522,7.8175 -6.522,8.1306 0,0.313 9.45,-2.3539 21,-5.9264 11.55,-3.5726 23.1666,-7.082 25.8147,-7.7987 z m 294.9135,-5.777 c 4.2505,-1.0276 8.0886,-2.2289 8.5294,-2.6697 0.4407,-0.4407 -8.4881,-10.1373 -19.842,-21.548 l -20.6432,-20.7467 5.9392,-9.5437 c 8.6772,-13.9434 19.2547,-34.1165 18.7236,-35.7095 -0.5837,-1.7513 -20.9236,10.9803 -35.7493,22.377 -16.898,12.9896 -48.0192,39.0588 -48.0192,40.2241 0,0.5593 0.9711,2.9636 2.158,5.3428 1.4484,2.9032 1.9559,6.4299 1.5432,10.724 l -0.6148,6.3981 10.1235,2.135 c 9.1398,1.9275 20.5232,3.7455 33.4568,5.3435 8.468,1.0462 36.5257,-0.4244 44.3948,-2.3269 z m -270.3948,-2.0303 c 7.8945,-2.7241 9.3392,-5.1874 17.8176,-30.3807 7.5153,-22.3314 14.8249,-52.1479 22.8268,-93.1122 11.8946,-60.8922 14.7224,-74.1308 21.3592,-100 24.5513,-95.69702 63.2156,-163.22701 135.5032,-236.66665 l 22.9673,-23.33363 1.5519,-24 c 0.8536,-13.2 1.3469,-26.01488 1.0964,-28.47751 l -0.4558,-4.4775 -10.2785,7.89381 c -58.6573,45.04827 -102.8763,105.12721 -132.7729,180.39453 -18.6427,46.93442 -30.3536,90.95355 -51.4348,193.33335 -16.3116,79.2162 -23.4548,109.5215 -34.0208,144.3333 -5.7799,19.0431 -5.9711,18.5686 5.8404,14.4929 z m 25.2793,-7.0935 c 5.7173,-1.5291 6.1412,-1.9903 9.4972,-10.3333 9.8811,-24.5643 18.0356,-50.9675 35.2285,-114.0661 16.477,-60.4705 23.2198,-83.4869 31.9972,-109.2217 28.9024,-84.7384 63.2236,-139.8684 109.3192,-175.599 l 10.9227,-8.46663 -0.9691,-8.68966 c -0.5329,-4.77931 -1.3378,-15.19955 -1.7888,-23.1561 l -0.8196,-14.46644 -20.0324,20.46644 c -67.5826,69.04694 -106.9661,139.47602 -130.5825,233.51979 -3.1703,12.6248 -9.4416,41.8525 -13.936,64.9504 -14.762,75.8644 -20.4491,99.363 -31.8644,131.6629 -2.9156,8.25 -4.7736,15 -4.1288,15 0.6449,0 3.8655,-0.7203 7.1568,-1.6006 z m 25.1156,-7.1627 c 2.8289,-0.6754 4.6415,-2.7007 7.5145,-8.3967 8.3484,-16.5512 22.8748,-56.1356 44.1003,-120.1733 25.8164,-77.8889 33.0671,-96.9837 49.4397,-130.20212 19.3567,-39.27255 43.1426,-72.51589 69.1767,-96.68176 l 11.9755,-11.11613 -4.394,-17.78804 -4.3942,-17.78804 -9.9066,7.94337 c -33.545,26.89672 -62.2555,66.95039 -84.3194,117.63271 -17.4085,39.98871 -26.967,69.52551 -51.6754,159.68231 -9.5944,35.0081 -21.332,75.051 -26.0838,88.9843 -4.7516,13.9334 -8.9948,26.4517 -9.429,27.8185 -0.6247,1.9662 -0.2616,2.3275 1.7389,1.73 1.3907,-0.4153 4.2063,-1.1557 6.2568,-1.6451 z m 22.9384,-6.311 c 6.6087,-1.6746 6.7212,-1.7932 12.9399,-13.641 8.9882,-17.1241 19.1528,-42.2157 35.6581,-88.0233 23.7749,-65.983 35.904,-93.0623 54.1903,-120.9857 12.3388,-18.8414 19.0509,-27.3183 33.794,-42.6785 11.3129,-11.78637 34.3134,-31.64821 40.9512,-35.36292 2.3744,-1.32875 2.3736,-1.56448 -0.024,-7.80235 -1.3596,-3.53772 -5.3408,-14.53221 -8.847,-24.43221 -3.5061,-9.9 -6.8896,-17.83493 -7.5188,-17.63319 -2.8121,0.90168 -16.1537,13.56652 -25.2397,23.95919 -20.8748,23.8772 -35.1027,45.42968 -51.0129,77.27478 -14.5066,29.0355 -24.2668,54.7557 -48.9779,129.0659 -19.6269,59.021 -32.1533,93.567 -42.4244,117 -2.4668,5.6279 -2.5912,5.5656 6.5109,3.2593 z m 28.6555,-7.9695 5.6954,-1.649 15.5712,-33.3204 c 36.1559,-77.3692 62.7543,-124.4277 91.8895,-162.5732 12.5095,-16.3781 33.8185,-38.0373 45.7864,-46.53885 l 8.9315,-6.34451 -4.5138,-12.93193 c -5.8886,-16.87086 -8.4756,-22.93192 -9.7874,-22.93192 -2.5302,0 -29.9192,23.36082 -40.8302,34.82513 -35.1146,36.89538 -54.4782,72.99028 -84.6764,157.84148 -13.4618,37.8257 -26.6965,71.3521 -33.5422,84.9704 -2.8487,5.6671 -5.1795,10.6575 -5.1795,11.0899 0,0.4323 1.116,0.4319 2.4799,0 1.364,-0.4329 5.0429,-1.5292 8.1756,-2.4361 z m 89.3445,-18.3479 c 32.5521,-27.0434 48.5145,-38.6253 66.7768,-48.4517 l 11.4433,-6.1574 4.2306,-13.6664 c 6.4745,-20.9156 11.8181,-50.3331 9.1428,-50.3331 -2.2224,0 -14.4519,7.9743 -25.5935,16.6884 -12.5805,9.8395 -41.1452,38.7383 -55.9901,56.6449 -11.9171,14.3751 -42.0135,54.3066 -42.003,55.7289 0,0.5158 2.8539,1.8561 6.3334,2.9784 7.396,2.3856 5.2984,3.4837 25.6597,-13.432 z m -61.9477,11.6637 c 58.6221,-104.789 95.8568,-154.069 139.9477,-185.2209 5.1333,-3.6269 10.05,-7.0024 10.9257,-7.501 1.1987,-0.6824 0.8184,-4.5315 -1.5372,-15.5619 -4.0969,-19.1848 -6.2078,-27.3218 -7.0876,-27.3218 -0.3937,0 -2.8725,1.6147 -5.5084,3.5883 -25.4308,19.041 -51.6332,50.8494 -77.8665,94.526 -13.0395,21.7097 -32.9501,58.7743 -43.2717,80.5523 -14.6291,30.8669 -26.9876,57.5504 -26.9876,58.2697 0,0.6497 10.9966,-0.6356 11.3856,-1.3307 z m 31.3712,-16.5761 c 19.521,-27.1499 42.4914,-54.9319 61.8522,-74.8083 21.3806,-21.9498 34.5794,-32.9765 50.6791,-42.3384 l 11.2632,-6.5495 -0.059,-16 c -0.032,-8.8 -0.4566,-18.8841 -0.9424,-22.4091 l -0.8832,-6.4092 -8.2286,5.7425 c -34.8878,24.3468 -70.0134,66.8657 -109.4126,132.4415 -13.3906,22.2868 -25.6925,43.9056 -25.6925,45.1503 0,0.4495 2.2905,0.8173 5.0901,0.8173 4.9695,0 5.3567,-0.3706 16.3334,-15.6371 z M 254.19707,692.91978 c 2.01667,-0.39716 3.66667,-1.26048 3.66667,-1.91849 0,-1.87264 -12.69042,-11.43502 -22.32934,-16.8254 -16.79666,-9.39324 -45.67066,-19.38884 -45.67066,-15.81027 0,0.96281 2.59772,5.26659 5.77269,9.56392 16.2976,22.0588 34.34317,29.75959 58.56064,24.99024 z m 463.22709,-19.30187 c 55.33936,-19.38973 92.994,-54.92942 113.88819,-107.49142 8.09049,-20.3527 14.43356,-50.04222 17.77935,-83.21848 0.88952,-8.82034 2.36253,-8.11587 -22.19003,-10.61228 -42.23908,-4.29471 -82.75325,5.34688 -118.30975,28.15542 -31.46845,20.18616 -110.72818,91.64162 -110.72818,99.82536 0,10.11942 15.21472,22.79971 27.35672,22.79971 7.64536,0 11.32964,-2.82881 28.11985,-21.59065 67.33029,-75.23674 109.43443,-99.7554 153.92555,-89.63612 10.7097,2.43588 10.3722,0.38449 3.60202,21.89344 -8.98608,28.54892 -21.78268,50.459 -40.17485,68.78654 -18.57961,18.51432 -32.12612,25.31215 -72.82929,36.54679 -23.22522,6.41048 -40.40174,12.58681 -48.40007,17.40372 l -3.73339,2.2484 7.29846,4.84443 c 21.71058,14.41068 42.62478,17.67312 64.39542,10.04514 z m -65.70514,-138.89697 16.5228,-14.35529 0.97618,-14.94328 c 2.76143,-42.27115 15.2431,-69.32914 45.80695,-99.30115 l 11.17132,-10.955 42.83373,-21.32037 c 43.27624,-21.54064 73.93043,-34.56559 108.98378,-46.30715 l 19.18329,-6.42569 50,-0.45028 c 68.73233,-0.61899 100.77673,1.568 146.00003,9.96434 25.1389,4.66739 52.6667,4.94504 52.6667,0.5312 0,-2.89666 -14.3461,-16.48426 -25.3929,-24.05034 -21.6139,-14.80364 -47.901,-24.90994 -89.9981,-34.6005 -13.1683,-3.03126 -28.7424,-7.06786 -34.60903,-8.97021 -22.31493,-7.23589 -38.83349,-18.7296 -48.40807,-33.6826 l -4.62408,-7.2216 4.98728,-10.11173 c 18.51248,-37.53407 53.388,-68.48096 111.2317,-98.70186 24.442,-12.76989 37.2602,-21.120818 46.4798,-30.28106 8.5353,-8.480254 8.9812,-11.760583 2,-14.7122 -6.8648,-2.902422 -26.3831,-3.73822 -43.0904,-1.845188 -61.3184,6.947712 -118.52364,30.874726 -167.9096,70.230908 -27.81434,22.16555 -63.16422,61.6766 -87.31141,97.58917 -10.4118,15.4848 -12.94641,18.37436 -20.05584,22.86436 -33.37752,21.07981 -65.04035,34.09336 -95.8074,39.3772 -19.9518,3.42647 -23.26665,3.00667 -32.79067,-4.15267 -25.447,-19.12884 -31.99214,-42.71782 -32.02297,-115.4121 -0.0138,-32.48404 -2.3626,-53.22156 -8.03312,-70.92378 -6.52672,-20.375084 -15.88503,-32.528898 -29.97859,-38.933775 -6.92704,-3.148023 -20.39161,-6.136599 -21.17921,-4.700909 -0.24848,0.452926 0.0146,4.423504 0.58455,8.823504 2.18382,16.858422 1.41726,56.8229 -1.40679,73.34183 -2.8348,16.58181 -8.44048,35.02318 -13.95261,45.90086 -10.29728,20.32069 -14.20272,57.72372 -8.7711,84.00213 4.58562,22.18539 15.71276,48.03252 32.83135,76.26362 l 7.57139,12.48634 -0.7887,10.22755 c -1.91637,24.85103 -10.34393,63.27857 -18.23313,83.13848 -6.28425,15.81968 -15.26739,32.84204 -24.58059,46.57833 -8.09225,11.93548 -8.43758,12.74784 -5.67901,13.35932 1.61545,0.3581 11.85532,2.76243 22.75525,5.34298 10.89995,2.58054 20.0909,4.69189 20.42435,4.69189 0.92391,0 11.77677,-23.65453 17.86997,-38.94877 10.89039,-27.33539 22.67526,-71.45375 30.63372,-114.68179 l 2.87766,-15.63055 -4.18828,-3.52421 c -10.06019,-8.46508 -22.02742,-29.34824 -27.35654,-47.73792 -6.91377,-23.85799 -7.78833,-35.18443 -7.52836,-97.49964 0.2096,-50.24296 -0.7706,-82.05529 -3.2448,-105.31045 l -0.70929,-6.666667 2.53884,4.666667 c 7.45789,13.7084 9.73937,41.84329 9.24437,114 -0.32725,47.70525 -0.0723,56.3573 2.00274,67.94289 2.85846,15.96035 8.98598,34.79675 14.39465,44.25012 4.62677,8.08675 15.19889,21.25664 17.89396,22.29084 1.02865,0.39473 10.71485,-3.17181 21.52488,-7.92567 40.86355,-17.97029 87.76608,-36.13672 133.80145,-51.8244 37.2374,-12.68953 54.84255,-23.22544 75.51599,-45.19294 5.76764,-6.12868 12.56191,-14.68255 15.09835,-19.00862 14.28992,-24.37228 51.262,-65.14317 76.90233,-84.80391 20.68227,-15.85893 57.49971,-35.08994 76.25431,-39.83021 6.1059,-1.54328 11.3431,-2.564492 11.6382,-2.269356 0.2951,0.295136 -4.4006,2.521016 -10.435,4.946406 -24.2087,9.73018 -51.61933,26.1975 -74.97156,45.04029 -25.20983,20.34164 -59.6168,58.29281 -71.72524,79.1135 -2.78222,4.78408 -8.40602,12.45622 -12.49732,17.04922 -6.79974,7.63352 -7.37224,8.76069 -6.6646,13.1214 1.76562,10.88022 13.35532,20.5095 32.07485,26.64934 10.59951,3.47655 11.42897,3.54054 42.14564,3.25123 40.776,-0.38403 62.27233,2.04145 89.33333,10.07968 11.6532,3.46149 31.1492,11.08208 30.363,11.86829 -0.2429,0.24298 -7.3926,-1.31484 -15.8882,-3.46181 -82.67692,-20.89391 -169.63606,-12.76729 -257.14146,24.03072 -27.73168,11.6618 -63.06388,29.33777 -75.97599,38.00924 -23.08829,15.50553 -38.18657,31.749 -48.34051,52.00708 -4.06254,8.10519 -39.72552,118.57355 -39.69486,122.95741 0.012,1.65978 6.53718,5.81975 8.34426,5.31938 0.54976,-0.15224 8.43483,-6.73667 17.52238,-14.63207 z m -15.41923,-50.64472 c 9.7018,-30.98333 19.76481,-60.70243 22.36225,-66.04243 9.50728,-19.54569 25.98315,-38.00306 47.2017,-52.87849 13.01077,-9.12129 22.41569,-14.22877 50.20696,-27.26565 45.27065,-21.23646 81.3092,-33.77482 119.12637,-41.44591 7.7,-1.56192 15.5,-3.16467 17.33333,-3.56167 2.92647,-0.63369 2.19412,-1.28584 -6,-5.34284 -10.6898,-5.29265 -18.35944,-12.10828 -22.27686,-19.79634 -1.49468,-2.93334 -2.88498,-5.52448 -3.08958,-5.7581 -0.20458,-0.23362 -5.13206,3.10462 -10.94996,7.41832 -15.56845,11.54331 -31.75438,19.32887 -60.61093,29.15434 -33.941,11.55669 -72.74483,26.22845 -103.48119,39.12632 -22.64873,9.50408 -45.60501,19.6282 -46.47162,20.49482 -0.1883,0.18828 -2.73154,12.36079 -5.65167,27.05002 -11.35761,57.13254 -24.11131,98.92733 -39.99608,131.07001 -3.05033,6.17231 -5.36311,11.77128 -5.13948,12.44213 0.38348,1.15044 25.40056,11.33662 28.39891,11.56316 0.76901,0.0581 9.33605,-25.24436 19.03785,-56.22769 z m 375.10781,425.66667 c 0,-1.83334 0.3027,-2.58334 0.6725,-1.66667 0.3699,0.91667 0.3699,2.41667 0,3.33333 -0.3698,0.91667 -0.6725,0.16667 -0.6725,-1.66666 z M 993.50817,522.91077 c 0.9045,-0.91123 1.9803,-1.3209 2.3908,-0.91038 0.4106,0.41052 -0.3294,1.15607 -1.6444,1.65678 -1.9003,0.72357 -2.0534,0.57042 -0.7464,-0.7464 z"
       id="path316"
       transform="translate(-163.99508,-53.56659)" />
  </g>
</svg>
